<svg width="9258" height="1200" viewBox="0 0 9258 1200" fill="none" xmlns="http://www.w3.org/2000/svg">
<path fill-rule="evenodd" clip-rule="evenodd" d="M562.044 0H0.142578V1199.97H562.044V0ZM899.884 0C1055.11 0 1180.83 126.491 1180.83 282.346C1180.83 438.13 1055.11 564.691 899.884 564.691C745.361 564.691 618.934 438.13 618.934 282.346C618.934 126.491 745.361 0 899.884 0Z" fill="#104911"/>
<path fill-rule="evenodd" clip-rule="evenodd" d="M5532.22 0H4966.8V1199.97H5532.22V0ZM6153.12 567.514C6153.12 254.252 5899.56 0 5588.41 0V1199.97H6153.12V567.514Z" fill="#104911"/>
<path fill-rule="evenodd" clip-rule="evenodd" d="M6830.43 632.455C6830.43 945.647 7083.29 1199.97 7394.44 1199.97V0H6830.43V632.455ZM8015.34 632.455C8015.34 945.647 7762.49 1199.97 7450.63 1199.97V0H8015.34V632.455Z" fill="#104911"/>
<path fill-rule="evenodd" clip-rule="evenodd" d="M1806.36 0H1239.55V629.629C1239.55 944.374 1493.8 1199.97 1806.36 1199.97V0ZM2427.96 0H1862.55V1199.97C2174.4 1199.97 2427.96 945.647 2427.96 632.455V0Z" fill="#104911"/>
<path fill-rule="evenodd" clip-rule="evenodd" d="M3048.19 0H2483.47V1199.97H3048.19V0ZM3669.09 889.175C3669.09 744.473 3551.79 626.947 3407.81 626.947H3104.38V1199.97H3359.34C3530.02 1199.97 3669.09 1060.7 3669.09 889.175ZM3669.09 262.159C3669.09 117.457 3551.79 0 3407.81 0H3104.38V572.949H3359.34C3530.02 572.949 3669.09 433.684 3669.09 262.159Z" fill="#104911"/>
<path fill-rule="evenodd" clip-rule="evenodd" d="M4910.77 237.86H4222.98C4146.51 237.86 4084.44 300.24 4084.44 377.088V401.308C4084.44 478.156 4146.51 540.536 4222.98 540.536H4910.77V627.029H4222.98C4146.51 627.029 4084.44 689.408 4084.44 766.256V791.485C4084.44 867.803 4146.09 929.706 4221.97 929.706H4910.77V1200H3725.14V0H4910.77V237.86Z" fill="#104911"/>
<path d="M6774.31 0H6209.6V1199.97H6774.31V0Z" fill="#104911"/>
<path fill-rule="evenodd" clip-rule="evenodd" d="M9257.28 270.203H8576.68C8493.1 270.203 8425.67 338.461 8425.67 422.529C8425.67 505.539 8492.4 572.949 8575.28 572.949H9257.28V1199.97H8070.97V929.693H8752.27C8835.15 929.693 8903.28 861.859 8903.28 778.284C8903.28 694.78 8835.15 626.947 8752.27 626.947H8070.97V0H9257.28V270.203Z" fill="#104911"/>
</svg>
