<svg width="1080" height="140" viewBox="0 0 1080 140" fill="none" xmlns="http://www.w3.org/2000/svg">
<path fill-rule="evenodd" clip-rule="evenodd" d="M65.5551 0H0V139.996H65.5551V0ZM104.97 0C123.079 0 137.747 14.7573 137.747 32.9403C137.747 51.1152 123.079 65.8807 104.97 65.8807C86.9422 65.8807 72.1923 51.1152 72.1923 32.9403C72.1923 14.7573 86.9422 0 104.97 0Z" fill="#4BA541"/>
<path fill-rule="evenodd" clip-rule="evenodd" d="M645.409 0H579.444V139.996H645.409V0ZM717.847 66.21C717.847 29.6627 688.265 0 651.964 0V139.996H717.847V66.21Z" fill="#DCDDE2"/>
<path fill-rule="evenodd" clip-rule="evenodd" d="M796.867 73.7864C796.867 110.325 826.367 139.996 862.668 139.996V0H796.867V73.7864ZM935.106 73.7864C935.106 110.325 905.607 139.996 869.224 139.996V0H935.106V73.7864Z" fill="#DCDDE2"/>
<path fill-rule="evenodd" clip-rule="evenodd" d="M210.725 0H144.597V73.4567C144.597 110.177 174.26 139.996 210.725 139.996V0ZM283.246 0H217.281V139.996C253.664 139.996 283.246 110.325 283.246 73.7864V0Z" fill="#DCDDE2"/>
<path fill-rule="evenodd" clip-rule="evenodd" d="M355.605 0H289.722V139.996H355.605V0ZM428.044 103.737C428.044 86.8552 414.359 73.1438 397.561 73.1438H362.161V139.996H391.906C411.819 139.996 428.044 123.748 428.044 103.737ZM428.044 30.5852C428.044 13.7033 414.359 0 397.561 0H362.161V66.8441H391.906C411.819 66.8441 428.044 50.5965 428.044 30.5852Z" fill="#DCDDE2"/>
<path fill-rule="evenodd" clip-rule="evenodd" d="M572.907 27.7504H492.664C483.743 27.7504 476.501 35.028 476.501 43.9936V46.8192C476.501 55.7849 483.743 63.0625 492.664 63.0625H572.907V73.1533H492.664C483.743 73.1533 476.501 80.431 476.501 89.3966V92.3399C476.501 101.244 483.693 108.466 492.547 108.466H572.907V140H434.583V0H572.907V27.7504Z" fill="#DCDDE2"/>
<path d="M790.319 0H724.437V139.997H790.319V0Z" fill="#DCDDE2"/>
<path fill-rule="evenodd" clip-rule="evenodd" d="M1080 31.5237H1000.6C990.845 31.5237 982.978 39.4871 982.978 49.2951C982.978 58.9795 990.763 66.8441 1000.43 66.8441H1080V139.996H941.596V108.464H1021.08C1030.75 108.464 1038.7 100.55 1038.7 90.7998C1038.7 81.0577 1030.75 73.1438 1021.08 73.1438H941.596V0H1080V31.5237Z" fill="#DCDDE2"/>
</svg>
