<?xml version="1.0" encoding="UTF-8"?>
<svg id="Layer_1" xmlns="http://www.w3.org/2000/svg" version="1.1" viewBox="0 0 360 210">
  <!-- Generator: Adobe Illustrator 30.1.0, SVG Export Plug-In . SVG Version: 2.1.1 Build 136)  -->
  <defs>
    <style>
      .st0 {
        fill: #5dbb54;
      }
    </style>
  </defs>
  <path class="st0" d="M99.4,137.9h-13.7v-16.4l-9.1-9.2h-15l-11.7-11.8v37.4h-11.8v-44.4l11.8-11.8v18.7h35.9v-7.8l-11-11h-24.9v-11.9h29.8l18,18v12.6l-8.1,8.1,9.9,9.9v19.4ZM122.6,126.1h47.7v11.9h-36l-11.7-11.9ZM154.8,112.3h-32.2v13.8h-11.8v-38.2l18-18h41.6v11.9h-36.8l-11,11v7.8h32.2v11.8h0ZM239.9,126.1h-11.8v-33.3l-11-11h-24.9v-11.9h29.8l18,18v38.2h0ZM192.2,81.8v44.3h35.9l-11.7,11.9h-36v-44.4s11.8-11.8,11.8-11.8ZM273.9,81.8l-11,11v7.4h29.5l18,18v8h-13.7l-11.7,11.9h-33.9v-11.9h45.6v-5l-9.1-9.1h-24.6l-11.8-11.9v-12.2l18-18h41.6v11.9h-36.8Z"/>
  <g>
    <path class="st0" d="M315.7,69.9v.6h-1.5v4.8h-.7v-4.8h-1.5v-.6h3.6Z"/>
    <path class="st0" d="M322,70v5.3h-.7v-4l-1.8,4h-.5l-1.8-4v4h-.7v-5.3h.8l2,4.4,2-4.4h.7Z"/>
  </g>
</svg>